{
  "accessors": [
    {
      "bufferView": 2,
      "componentType": 5126,
      "count": 24,
      "max": [
        2.450000047683716,
        2.450000047683716,
        9.5
      ],
      "min": [
        -2.450000047683716,
        -2.450000047683716,
        9.5
      ],
      "type": "VEC3"
    },
    {
      "bufferView": 2,
      "byteOffset": 288,
      "componentType": 5126,
      "count": 24,
      "max": [
        -0.0,
        0.0,
        1.0
      ],
      "min": [
        -0.0,
        0.0,
        1.0
      ],
      "type": "VEC3"
    },
    {
      "bufferView": 1,
      "componentType": 5126,
      "count": 24,
      "max": [
        2.0118117332458496,
        2.0118117332458496
      ],
      "min": [
        0.08267798274755478,
        0.08267798274755478
      ],
      "type": "VEC2"
    },
    {
      "bufferView": 0,
      "componentType": 5125,
      "count": 66,
      "type": "SCALAR"
    },
    {
      "bufferView": 2,
      "byteOffset": 576,
      "componentType": 5126,
      "count": 3101,
      "max": [
        2.6500000953674316,
        2.6500000953674316,
        14.399999618530273
      ],
      "min": [
        -2.6501688957214355,
        -2.6501688957214355,
        8.5
      ],
      "type": "VEC3"
    },
    {
      "bufferView": 2,
      "byteOffset": 37788,
      "componentType": 5126,
      "count": 3101,
      "max": [
        1.0,
        1.0,
        1.0
      ],
      "min": [
        -0.9999869465827942,
        -1.0,
        -1.0
      ],
      "type": "VEC3"
    },
    {
      "bufferView": 1,
      "byteOffset": 192,
      "componentType": 5126,
      "count": 3101,
      "max": [
        1.7958682775497437,
        5.683172225952148
      ],
      "min": [
        -2.0708281993865967,
        -1.4753738641738892
      ],
      "type": "VEC2"
    },
    {
      "bufferView": 0,
      "byteOffset": 264,
      "componentType": 5125,
      "count": 4911,
      "type": "SCALAR"
    },
    {
      "bufferView": 2,
      "byteOffset": 75000,
      "componentType": 5126,
      "count": 1774,
      "max": [
        2.6500000953674316,
        2.6500000953674316,
        14.399999618530273
      ],
      "min": [
        -2.6501688957214355,
        -2.6501688957214355,
        8.5
      ],
      "type": "VEC3"
    },
    {
      "bufferView": 2,
      "byteOffset": 96288,
      "componentType": 5126,
      "count": 1774,
      "max": [
        1.0,
        1.0,
        1.0
      ],
      "min": [
        -1.0,
        -1.0,
        -1.0
      ],
      "type": "VEC3"
    },
    {
      "bufferView": 1,
      "byteOffset": 25000,
      "componentType": 5126,
      "count": 1774,
      "max": [
        2.133635997772217,
        5.696195602416992
      ],
      "min": [
        -2.0905520915985107,
        -0.5814952254295349
      ],
      "type": "VEC2"
    },
    {
      "bufferView": 0,
      "byteOffset": 19908,
      "componentType": 5125,
      "count": 5421,
      "type": "SCALAR"
    },
    {
      "bufferView": 2,
      "byteOffset": 117576,
      "componentType": 5126,
      "count": 989,
      "max": [
        2.6500000953674316,
        2.6500000953674316,
        9.5
      ],
      "min": [
        -2.6500000953674316,
        -2.6500000953674316,
        0.20000000298023224
      ],
      "type": "VEC3"
    },
    {
      "bufferView": 2,
      "byteOffset": 129444,
      "componentType": 5126,
      "count": 989,
      "max": [
        0.9914449453353882,
        1.0,
        0.44721415638923645
      ],
      "min": [
        -0.9914449453353882,
        -1.0,
        -5.594812282325211e-15
      ],
      "type": "VEC3"
    },
    {
      "bufferView": 1,
      "byteOffset": 39192,
      "componentType": 5126,
      "count": 989,
      "max": [
        1.0,
        0.9955679178237915
      ],
      "min": [
        0.00934507790952921,
        -7.320533068622126e-16
      ],
      "type": "VEC2"
    },
    {
      "bufferView": 0,
      "byteOffset": 41592,
      "componentType": 5125,
      "count": 2928,
      "type": "SCALAR"
    },
    {
      "bufferView": 2,
      "byteOffset": 141312,
      "componentType": 5126,
      "count": 4675,
      "max": [
        2.6600019931793213,
        2.6600019931793213,
        11.5
      ],
      "min": [
        -2.6600019931793213,
        -2.6600019931793213,
        0.0
      ],
      "type": "VEC3"
    },
    {
      "bufferView": 2,
      "byteOffset": 197412,
      "componentType": 5126,
      "count": 4675,
      "max": [
        1.0,
        0.9999878406524658,
        1.0
      ],
      "min": [
        -0.9999878406524658,
        -0.9999878406524658,
        -1.0
      ],
      "type": "VEC3"
    },
    {
      "bufferView": 1,
      "byteOffset": 47104,
      "componentType": 5126,
      "count": 4675,
      "max": [
        2.5167288780212402,
        4.527559280395508
      ],
      "min": [
        -2.5167288780212402,
        -0.4860152006149292
      ],
      "type": "VEC2"
    },
    {
      "bufferView": 0,
      "byteOffset": 53304,
      "componentType": 5125,
      "count": 8331,
      "type": "SCALAR"
    }
  ],
  "asset": {
    "extras": {
      "author": "Pablopcb (https://sketchfab.com/pablopcb)",
      "license": "CC-BY-4.0 (http://creativecommons.org/licenses/by/4.0/)",
      "source": "https://sketchfab.com/3d-models/axe-93fea564b3734c92bcc0ca76ced497b8",
      "title": "Axe"
    },
    "generator": "Sketchfab-12.67.0",
    "version": "2.0"
  },
  "bufferViews": [
    {
      "buffer": 0,
      "byteLength": 86628,
      "name": "floatBufferViews",
      "target": 34963
    },
    {
      "buffer": 0,
      "byteLength": 84504,
      "byteOffset": 86628,
      "byteStride": 8,
      "name": "floatBufferViews",
      "target": 34962
    },
    {
      "buffer": 0,
      "byteLength": 253512,
      "byteOffset": 171132,
      "byteStride": 12,
      "name": "floatBufferViews",
      "target": 34962
    }
  ],
  "buffers": [
    {
      "byteLength": 424644,
      "uri": "scene.bin"
    }
  ],
  "images": [
    {
      "uri": "textures/AXE_dime_baseColor.jpeg"
    }
  ],
  "materials": [
    {
      "doubleSided": true,
      "name": "material",
      "pbrMetallicRoughness": {
        "baseColorFactor": [
          0.0117506375,
          0.0117506375,
          0.0117506375,
          1.0
        ],
        "metallicFactor": 0.0,
        "roughnessFactor": 0.6
      }
    },
    {
      "doubleSided": true,
      "name": "AXE_dime",
      "pbrMetallicRoughness": {
        "baseColorFactor": [
          0.74,
          0.74,
          0.74,
          1.0
        ],
        "baseColorTexture": {
          "index": 0
        },
        "metallicFactor": 0.0,
        "roughnessFactor": 0.6
      }
    },
    {
      "doubleSided": true,
      "name": "FrontCol",
      "pbrMetallicRoughness": {
        "metallicFactor": 0.0,
        "roughnessFactor": 0.6
      }
    },
    {
      "doubleSided": true,
      "name": "BASE",
      "pbrMetallicRoughness": {
        "baseColorFactor": [
          0.0980392,
          0.0980392,
          0.0980392,
          1.0
        ],
        "metallicFactor": 0.0,
        "roughnessFactor": 0.6
      }
    }
  ],
  "meshes": [
    {
      "name": "Object_0",
      "primitives": [
        {
          "attributes": {
            "NORMAL": 1,
            "POSITION": 0,
            "TEXCOORD_0": 2
          },
          "indices": 3,
          "material": 2,
          "mode": 4
        }
      ]
    },
    {
      "name": "Object_1",
      "primitives": [
        {
          "attributes": {
            "NORMAL": 5,
            "POSITION": 4,
            "TEXCOORD_0": 6
          },
          "indices": 7,
          "material": 0,
          "mode": 4
        }
      ]
    },
    {
      "name": "Object_2",
      "primitives": [
        {
          "attributes": {
            "NORMAL": 9,
            "POSITION": 8,
            "TEXCOORD_0": 10
          },
          "indices": 11,
          "material": 0,
          "mode": 4
        }
      ]
    },
    {
      "name": "Object_3",
      "primitives": [
        {
          "attributes": {
            "NORMAL": 13,
            "POSITION": 12,
            "TEXCOORD_0": 14
          },
          "indices": 15,
          "material": 1,
          "mode": 4
        }
      ]
    },
    {
      "name": "Object_4",
      "primitives": [
        {
          "attributes": {
            "NORMAL": 17,
            "POSITION": 16,
            "TEXCOORD_0": 18
          },
          "indices": 19,
          "material": 3,
          "mode": 4
        }
      ]
    }
  ],
  "nodes": [
    {
      "children": [
        1
      ],
      "matrix": [
        1.0,
        0.0,
        0.0,
        0.0,
        0.0,
        2.220446049250313e-16,
        -1.0,
        0.0,
        0.0,
        1.0,
        2.220446049250313e-16,
        0.0,
        0.0,
        0.0,
        0.0,
        1.0
      ],
      "name": "Sketchfab_model"
    },
    {
      "children": [
        2
      ],
      "name": "AXE_PRODUCTO.3ds"
    },
    {
      "children": [
        3,
        4,
        5,
        6,
        7
      ],
      "name": "Model"
    },
    {
      "mesh": 0,
      "name": "Object_3"
    },
    {
      "mesh": 1,
      "name": "Object_4"
    },
    {
      "mesh": 2,
      "name": "Object_5"
    },
    {
      "mesh": 3,
      "name": "Object_6"
    },
    {
      "mesh": 4,
      "name": "Object_7"
    }
  ],
  "samplers": [
    {
      "magFilter": 9729,
      "minFilter": 9987,
      "wrapS": 10497,
      "wrapT": 10497
    }
  ],
  "scene": 0,
  "scenes": [
    {
      "name": "Sketchfab_Scene",
      "nodes": [
        0
      ]
    }
  ],
  "textures": [
    {
      "sampler": 0,
      "source": 0
    }
  ]
}
